<svg aria-roledescription="er" viewBox="0 0 473.470703125 298" style="max-width: 473.471px; background-color: white;" xmlns:xlink="http://www.w3.org/1999/xlink" xmlns="http://www.w3.org/2000/svg" width="100%" id="mermaid-0"><style>#mermaid-0{font-family:"trebuchet ms",verdana,arial,sans-serif;font-size:16px;fill:#000000;}#mermaid-0 .error-icon{fill:#552222;}#mermaid-0 .error-text{fill:#552222;stroke:#552222;}#mermaid-0 .edge-thickness-normal{stroke-width:2px;}#mermaid-0 .edge-thickness-thick{stroke-width:3.5px;}#mermaid-0 .edge-pattern-solid{stroke-dasharray:0;}#mermaid-0 .edge-pattern-dashed{stroke-dasharray:3;}#mermaid-0 .edge-pattern-dotted{stroke-dasharray:2;}#mermaid-0 .marker{fill:#000000;stroke:#000000;}#mermaid-0 .marker.cross{stroke:#000000;}#mermaid-0 svg{font-family:"trebuchet ms",verdana,arial,sans-serif;font-size:16px;}#mermaid-0 .entityBox{fill:#cde498;stroke:#13540c;}#mermaid-0 .attributeBoxOdd{fill:#ffffff;stroke:#13540c;}#mermaid-0 .attributeBoxEven{fill:#f2f2f2;stroke:#13540c;}#mermaid-0 .relationshipLabelBox{fill:hsl(78.1578947368, 58.4615384615%, 84.5098039216%);opacity:0.7;background-color:hsl(78.1578947368, 58.4615384615%, 84.5098039216%);}#mermaid-0 .relationshipLabelBox rect{opacity:0.5;}#mermaid-0 .relationshipLine{stroke:#000000;}#mermaid-0 .entityTitleText{text-anchor:middle;font-size:18px;fill:#000000;}#mermaid-0 :root{--mermaid-font-family:"trebuchet ms",verdana,arial,sans-serif;}</style><g/><defs><marker orient="auto" markerHeight="18" markerWidth="18" refY="9" refX="0" id="ONLY_ONE_START"><path d="M9,0 L9,18 M15,0 L15,18" fill="none" stroke="gray"/></marker></defs><defs><marker orient="auto" markerHeight="18" markerWidth="18" refY="9" refX="18" id="ONLY_ONE_END"><path d="M3,0 L3,18 M9,0 L9,18" fill="none" stroke="gray"/></marker></defs><defs><marker orient="auto" markerHeight="18" markerWidth="30" refY="9" refX="0" id="ZERO_OR_ONE_START"><circle r="6" cy="9" cx="21" fill="white" stroke="gray"/><path d="M9,0 L9,18" fill="none" stroke="gray"/></marker></defs><defs><marker orient="auto" markerHeight="18" markerWidth="30" refY="9" refX="30" id="ZERO_OR_ONE_END"><circle r="6" cy="9" cx="9" fill="white" stroke="gray"/><path d="M21,0 L21,18" fill="none" stroke="gray"/></marker></defs><defs><marker orient="auto" markerHeight="36" markerWidth="45" refY="18" refX="18" id="ONE_OR_MORE_START"><path d="M0,18 Q 18,0 36,18 Q 18,36 0,18 M42,9 L42,27" fill="none" stroke="gray"/></marker></defs><defs><marker orient="auto" markerHeight="36" markerWidth="45" refY="18" refX="27" id="ONE_OR_MORE_END"><path d="M3,9 L3,27 M9,18 Q27,0 45,18 Q27,36 9,18" fill="none" stroke="gray"/></marker></defs><defs><marker orient="auto" markerHeight="36" markerWidth="57" refY="18" refX="18" id="ZERO_OR_MORE_START"><circle r="6" cy="18" cx="48" fill="white" stroke="gray"/><path d="M0,18 Q18,0 36,18 Q18,36 0,18" fill="none" stroke="gray"/></marker></defs><defs><marker orient="auto" markerHeight="36" markerWidth="57" refY="18" refX="39" id="ZERO_OR_MORE_END"><circle r="6" cy="18" cx="9" fill="white" stroke="gray"/><path d="M21,18 Q39,0 57,18 Q39,36 21,18" fill="none" stroke="gray"/></marker></defs><path style="stroke: gray; fill: none;" marker-start="url(#ZERO_OR_MORE_START)" marker-end="url(#ONLY_ONE_END)" d="M83.50390625,88L83.50390625,96.33333333333333C83.50390625,104.66666666666667,83.50390625,121.33333333333333,87.8898711622807,138C92.27583607456141,154.66666666666666,101.04776589912281,171.33333333333334,105.4337308114035,179.66666666666666L109.8196957236842,188" class="er relationshipLine"/><path style="stroke: gray; fill: none;" marker-start="url(#ZERO_OR_MORE_START)" marker-end="url(#ONLY_ONE_END)" d="M364.2197730654762,77L370.27136036706344,87.16666666666667C376.3229476686508,97.33333333333333,388.42612227182536,117.66666666666667,394.4777095734127,138C400.529296875,158.33333333333334,400.529296875,178.66666666666666,400.529296875,188.83333333333334L400.529296875,199" class="er relationshipLine"/><path style="stroke: gray; fill: none;" marker-start="url(#ZERO_OR_MORE_START)" marker-end="url(#ONLY_ONE_END)" d="M320.3353794642857,77L306.98879278273813,87.16666666666667C293.6422061011905,97.33333333333333,266.94903273809524,117.66666666666667,244.23823964207395,136.16666666666666C221.52744654605263,154.66666666666666,202.7990337171053,171.33333333333334,193.43482730263156,179.66666666666666L184.0706208881579,188" class="er relationshipLine"/><g transform="translate(65.8984375,188 )" id="entity-habits-61432349-b0ca-4bfd-bede-8e3c1da690bf"><rect height="90" width="135.2109375" y="0" x="0" class="er entityBox"/><text style="dominant-baseline: middle; text-anchor: middle; font-size: 12px;" transform="translate(67.60546875,12)" y="0" x="0" id="text-entity-habits-61432349-b0ca-4bfd-bede-8e3c1da690bf" class="er entityLabel">habits</text><rect height="22" width="53.6640625" y="24" x="0" class="er attributeBoxOdd"/><text style="dominant-baseline: middle; font-size: 10.2px;" transform="translate(5,35)" y="0" x="0" id="text-entity-habits-61432349-b0ca-4bfd-bede-8e3c1da690bf-attr-1-type" class="er entityLabel">String</text><rect height="22" width="59.984375" y="24" x="53.6640625" class="er attributeBoxOdd"/><text style="dominant-baseline: middle; font-size: 10.2px;" transform="translate(58.6640625,35)" y="0" x="0" id="text-entity-habits-61432349-b0ca-4bfd-bede-8e3c1da690bf-attr-1-name" class="er entityLabel">id</text><rect height="22" width="21.5625" y="24" x="113.6484375" class="er attributeBoxOdd"/><text style="dominant-baseline: middle; font-size: 10.2px;" transform="translate(118.6484375,35)" y="0" x="0" id="text-entity-habits-61432349-b0ca-4bfd-bede-8e3c1da690bf-attr-1-key" class="er entityLabel">PK</text><rect height="22" width="53.6640625" y="46" x="0" class="er attributeBoxEven"/><text style="dominant-baseline: middle; font-size: 10.2px;" transform="translate(5,57)" y="0" x="0" id="text-entity-habits-61432349-b0ca-4bfd-bede-8e3c1da690bf-attr-2-type" class="er entityLabel">String</text><rect height="22" width="59.984375" y="46" x="53.6640625" class="er attributeBoxEven"/><text style="dominant-baseline: middle; font-size: 10.2px;" transform="translate(58.6640625,57)" y="0" x="0" id="text-entity-habits-61432349-b0ca-4bfd-bede-8e3c1da690bf-attr-2-name" class="er entityLabel">title</text><rect height="22" width="21.5625" y="46" x="113.6484375" class="er attributeBoxEven"/><text style="dominant-baseline: middle; font-size: 10.2px;" transform="translate(118.6484375,57)" y="0" x="0" id="text-entity-habits-61432349-b0ca-4bfd-bede-8e3c1da690bf-attr-2-key" class="er entityLabel"/><rect height="22" width="53.6640625" y="68" x="0" class="er attributeBoxOdd"/><text style="dominant-baseline: middle; font-size: 10.2px;" transform="translate(5,79)" y="0" x="0" id="text-entity-habits-61432349-b0ca-4bfd-bede-8e3c1da690bf-attr-3-type" class="er entityLabel">DateTime</text><rect height="22" width="59.984375" y="68" x="53.6640625" class="er attributeBoxOdd"/><text style="dominant-baseline: middle; font-size: 10.2px;" transform="translate(58.6640625,79)" y="0" x="0" id="text-entity-habits-61432349-b0ca-4bfd-bede-8e3c1da690bf-attr-3-name" class="er entityLabel">created_at</text><rect height="22" width="21.5625" y="68" x="113.6484375" class="er attributeBoxOdd"/><text style="dominant-baseline: middle; font-size: 10.2px;" transform="translate(118.6484375,79)" y="0" x="0" id="text-entity-habits-61432349-b0ca-4bfd-bede-8e3c1da690bf-attr-3-key" class="er entityLabel"/></g><g transform="translate(20,20 )" id="entity-habitsweekdays-4aea71fd-3325-4dd5-8bba-02af208bed1a"><rect height="68" width="127.0078125" y="0" x="0" class="er entityBox"/><text style="dominant-baseline: middle; text-anchor: middle; font-size: 12px;" transform="translate(63.50390625,12)" y="0" x="0" id="text-entity-habitsweekdays-4aea71fd-3325-4dd5-8bba-02af208bed1a" class="er entityLabel">habits_week_days</text><rect height="22" width="41.067708333333336" y="24" x="0" class="er attributeBoxOdd"/><text style="dominant-baseline: middle; font-size: 10.2px;" transform="translate(5,35)" y="0" x="0" id="text-entity-habitsweekdays-4aea71fd-3325-4dd5-8bba-02af208bed1a-attr-1-type" class="er entityLabel">String</text><rect height="22" width="59.833333333333336" y="24" x="41.067708333333336" class="er attributeBoxOdd"/><text style="dominant-baseline: middle; font-size: 10.2px;" transform="translate(46.067708333333336,35)" y="0" x="0" id="text-entity-habitsweekdays-4aea71fd-3325-4dd5-8bba-02af208bed1a-attr-1-name" class="er entityLabel">id</text><rect height="22" width="26.106770833333332" y="24" x="100.90104166666667" class="er attributeBoxOdd"/><text style="dominant-baseline: middle; font-size: 10.2px;" transform="translate(105.90104166666667,35)" y="0" x="0" id="text-entity-habitsweekdays-4aea71fd-3325-4dd5-8bba-02af208bed1a-attr-1-key" class="er entityLabel">PK</text><rect height="22" width="41.067708333333336" y="46" x="0" class="er attributeBoxEven"/><text style="dominant-baseline: middle; font-size: 10.2px;" transform="translate(5,57)" y="0" x="0" id="text-entity-habitsweekdays-4aea71fd-3325-4dd5-8bba-02af208bed1a-attr-2-type" class="er entityLabel">Int</text><rect height="22" width="59.833333333333336" y="46" x="41.067708333333336" class="er attributeBoxEven"/><text style="dominant-baseline: middle; font-size: 10.2px;" transform="translate(46.067708333333336,57)" y="0" x="0" id="text-entity-habitsweekdays-4aea71fd-3325-4dd5-8bba-02af208bed1a-attr-2-name" class="er entityLabel">week_day</text><rect height="22" width="26.106770833333332" y="46" x="100.90104166666667" class="er attributeBoxEven"/><text style="dominant-baseline: middle; font-size: 10.2px;" transform="translate(105.90104166666667,57)" y="0" x="0" id="text-entity-habitsweekdays-4aea71fd-3325-4dd5-8bba-02af208bed1a-attr-2-key" class="er entityLabel"/></g><g transform="translate(347.587890625,199 )" id="entity-days-00f8aba4-3f94-485a-b68e-9b86d6392751"><rect height="68" width="105.8828125" y="0" x="0" class="er entityBox"/><text style="dominant-baseline: middle; text-anchor: middle; font-size: 12px;" transform="translate(52.94140625,12)" y="0" x="0" id="text-entity-days-00f8aba4-3f94-485a-b68e-9b86d6392751" class="er entityLabel">days</text><rect height="22" width="53.6640625" y="24" x="0" class="er attributeBoxOdd"/><text style="dominant-baseline: middle; font-size: 10.2px;" transform="translate(5,35)" y="0" x="0" id="text-entity-days-00f8aba4-3f94-485a-b68e-9b86d6392751-attr-1-type" class="er entityLabel">String</text><rect height="22" width="30.65625" y="24" x="53.6640625" class="er attributeBoxOdd"/><text style="dominant-baseline: middle; font-size: 10.2px;" transform="translate(58.6640625,35)" y="0" x="0" id="text-entity-days-00f8aba4-3f94-485a-b68e-9b86d6392751-attr-1-name" class="er entityLabel">id</text><rect height="22" width="21.5625" y="24" x="84.3203125" class="er attributeBoxOdd"/><text style="dominant-baseline: middle; font-size: 10.2px;" transform="translate(89.3203125,35)" y="0" x="0" id="text-entity-days-00f8aba4-3f94-485a-b68e-9b86d6392751-attr-1-key" class="er entityLabel">PK</text><rect height="22" width="53.6640625" y="46" x="0" class="er attributeBoxEven"/><text style="dominant-baseline: middle; font-size: 10.2px;" transform="translate(5,57)" y="0" x="0" id="text-entity-days-00f8aba4-3f94-485a-b68e-9b86d6392751-attr-2-type" class="er entityLabel">DateTime</text><rect height="22" width="30.65625" y="46" x="53.6640625" class="er attributeBoxEven"/><text style="dominant-baseline: middle; font-size: 10.2px;" transform="translate(58.6640625,57)" y="0" x="0" id="text-entity-days-00f8aba4-3f94-485a-b68e-9b86d6392751-attr-2-name" class="er entityLabel">date</text><rect height="22" width="21.5625" y="46" x="84.3203125" class="er attributeBoxEven"/><text style="dominant-baseline: middle; font-size: 10.2px;" transform="translate(89.3203125,57)" y="0" x="0" id="text-entity-days-00f8aba4-3f94-485a-b68e-9b86d6392751-attr-2-key" class="er entityLabel"/></g><g transform="translate(300.529296875,31 )" id="entity-dayhabits-84023044-bcbd-4ba8-88cd-16e8ee5f4d50"><rect height="46" width="100" y="0" x="0" class="er entityBox"/><text style="dominant-baseline: middle; text-anchor: middle; font-size: 12px;" transform="translate(50,12)" y="0" x="0" id="text-entity-dayhabits-84023044-bcbd-4ba8-88cd-16e8ee5f4d50" class="er entityLabel">day_habits</text><rect height="22" width="44.296875" y="24" x="0" class="er attributeBoxOdd"/><text style="dominant-baseline: middle; font-size: 10.2px;" transform="translate(5,35)" y="0" x="0" id="text-entity-dayhabits-84023044-bcbd-4ba8-88cd-16e8ee5f4d50-attr-1-type" class="er entityLabel">String</text><rect height="22" width="26.3671875" y="24" x="44.296875" class="er attributeBoxOdd"/><text style="dominant-baseline: middle; font-size: 10.2px;" transform="translate(49.296875,35)" y="0" x="0" id="text-entity-dayhabits-84023044-bcbd-4ba8-88cd-16e8ee5f4d50-attr-1-name" class="er entityLabel">id</text><rect height="22" width="29.3359375" y="24" x="70.6640625" class="er attributeBoxOdd"/><text style="dominant-baseline: middle; font-size: 10.2px;" transform="translate(75.6640625,35)" y="0" x="0" id="text-entity-dayhabits-84023044-bcbd-4ba8-88cd-16e8ee5f4d50-attr-1-key" class="er entityLabel">PK</text></g><rect height="14" width="27.7265625" y="133.108642578125" x="74.6045913696289" class="er relationshipLabelBox"/><text style="text-anchor: middle; dominant-baseline: middle; font-size: 12px;" y="140.108642578125" x="88.4678726196289" id="rel1" class="er relationshipLabel">habit</text><rect height="14" width="18.9140625" y="127.78831481933594" x="384.015625" class="er relationshipLabelBox"/><text style="text-anchor: middle; dominant-baseline: middle; font-size: 12px;" y="134.78831481933594" x="393.47265625" id="rel2" class="er relationshipLabel">day</text><rect height="14" width="27.7265625" y="123.82891845703125" x="236.97293090820312" class="er relationshipLabelBox"/><text style="text-anchor: middle; dominant-baseline: middle; font-size: 12px;" y="130.82891845703125" x="250.83621215820312" id="rel3" class="er relationshipLabel">habit</text></svg>